<?xml version="1.0" encoding="UTF-8"?>
<svg xmlns="http://www.w3.org/2000/svg" xmlns:xlink="http://www.w3.org/1999/xlink" width="64px" height="64px" viewBox="0 0 64 64" version="1.1">
<defs>
<clipPath id="clip1">
  <path d="M 30 20.640625 L 60.640625 20.640625 L 60.640625 44 L 30 44 Z M 30 20.640625 "/>
</clipPath>
</defs>
<g id="surface1">
<rect x="0" y="0" width="64" height="64" style="fill:rgb(100%,100%,100%);fill-opacity:1;stroke:none;"/>
<path style=" stroke:none;fill-rule:nonzero;fill:rgb(0%,0%,0%);fill-opacity:1;" d="M 30.773438 23.589844 L 33.21875 23.589844 L 26.636719 41.328125 L 24.167969 41.328125 Z M 30.773438 23.589844 "/>
<path style=" stroke:none;fill-rule:nonzero;fill:rgb(0%,0%,0%);fill-opacity:1;" d="M 47.585938 29.167969 C 47.585938 29.632812 47.527344 30.085938 47.410156 30.523438 C 47.289062 30.960938 47.101562 31.398438 46.835938 31.835938 C 46.578125 32.265625 46.25 32.699219 45.847656 33.136719 C 45.445312 33.574219 44.96875 34.027344 44.421875 34.492188 L 42.453125 36.105469 C 42.152344 36.320312 41.882812 36.492188 41.640625 36.617188 C 41.5 36.695312 41.367188 36.757812 41.242188 36.804688 L 41.242188 36.886719 C 41.421875 36.875 41.613281 36.859375 41.816406 36.84375 C 41.988281 36.84375 42.179688 36.84375 42.390625 36.835938 C 42.597656 36.828125 42.804688 36.824219 43.015625 36.824219 L 47.753906 36.824219 L 47.753906 38.960938 L 38.640625 38.960938 L 38.640625 36.46875 L 42.984375 32.9375 C 43.773438 32.289062 44.34375 31.675781 44.691406 31.105469 C 45.039062 30.53125 45.210938 29.917969 45.210938 29.273438 C 45.210938 28.664062 45.027344 28.175781 44.660156 27.8125 C 44.296875 27.445312 43.800781 27.261719 43.171875 27.261719 C 42.488281 27.261719 41.945312 27.4375 41.546875 27.792969 C 41.140625 28.140625 40.941406 28.601562 40.941406 29.179688 L 38.546875 29.179688 C 38.558594 28.574219 38.675781 28.03125 38.898438 27.542969 C 39.128906 27.050781 39.445312 26.632812 39.847656 26.28125 C 40.25 25.9375 40.734375 25.664062 41.304688 25.46875 C 41.882812 25.277344 42.515625 25.179688 43.210938 25.179688 C 43.863281 25.179688 44.460938 25.277344 45.003906 25.46875 C 45.546875 25.65625 46.007812 25.929688 46.390625 26.28125 C 46.769531 26.632812 47.066406 27.046875 47.273438 27.53125 C 47.484375 28.019531 47.585938 28.5625 47.585938 29.167969 Z M 47.585938 29.167969 "/>
<path style=" stroke:none;fill-rule:nonzero;fill:rgb(0%,0%,0%);fill-opacity:1;" d="M 55.457031 25.367188 L 58.101562 25.367188 L 52.339844 33.492188 L 52.339844 34.199219 L 56.289062 34.199219 L 56.289062 31.21875 L 58.652344 31.21875 L 58.652344 38.960938 L 56.289062 38.960938 L 56.289062 36.261719 L 50.101562 36.261719 L 50.101562 32.9375 Z M 55.457031 25.367188 "/>
<path style=" stroke:none;fill-rule:nonzero;fill:rgb(0%,0%,0%);fill-opacity:1;" d="M 5.496094 37.507812 L 9.144531 37.507812 L 9.144531 27.976562 C 9.144531 27.875 9.144531 27.757812 9.152344 27.625 C 9.160156 27.492188 9.164062 27.371094 9.164062 27.257812 C 9.164062 27.148438 9.164062 27.050781 9.164062 26.96875 C 9.167969 26.882812 9.175781 26.84375 9.175781 26.84375 L 9.144531 26.84375 C 9.050781 26.921875 8.960938 26.988281 8.871094 27.050781 C 8.800781 27.113281 8.726562 27.175781 8.644531 27.238281 C 8.558594 27.300781 8.480469 27.359375 8.402344 27.414062 L 5.746094 29.226562 L 5.746094 27.507812 L 8.664062 25.425781 L 10.839844 25.425781 L 10.839844 37.507812 L 13.894531 37.507812 L 13.894531 39.019531 L 5.496094 39.019531 Z M 5.496094 37.507812 "/>
<g clip-path="url(#clip1)" clip-rule="nonzero">
<path style="fill:none;stroke-width:5;stroke-linecap:round;stroke-linejoin:miter;stroke:rgb(94.509804%,35.686275%,42.745098%);stroke-opacity:1;stroke-miterlimit:4;" d="M 1.501681 1.502028 L 43.489132 1.502028 " transform="matrix(0.417163,0.417163,-0.417163,0.417163,40.113426,22.461807)"/>
</g>
</g>
</svg>
