<?xml version="1.0" encoding="UTF-8"?>
<svg xmlns="http://www.w3.org/2000/svg" xmlns:xlink="http://www.w3.org/1999/xlink" width="128px" height="128px" viewBox="0 0 128 128" version="1.1">
<defs>
<clipPath id="clip1">
  <path d="M 60 41.28125 L 121.28125 41.28125 L 121.28125 88 L 60 88 Z M 60 41.28125 "/>
</clipPath>
</defs>
<g id="surface1">
<rect x="0" y="0" width="128" height="128" style="fill:rgb(100%,100%,100%);fill-opacity:1;stroke:none;"/>
<path style=" stroke:none;fill-rule:nonzero;fill:rgb(0%,0%,0%);fill-opacity:1;" d="M 61.542969 47.175781 L 66.441406 47.175781 L 53.273438 82.65625 L 48.335938 82.65625 Z M 61.542969 47.175781 "/>
<path style=" stroke:none;fill-rule:nonzero;fill:rgb(0%,0%,0%);fill-opacity:1;" d="M 95.175781 58.335938 C 95.175781 59.269531 95.054688 60.171875 94.820312 61.046875 C 94.582031 61.921875 94.199219 62.796875 93.675781 63.671875 C 93.160156 64.535156 92.496094 65.398438 91.695312 66.273438 C 90.886719 67.148438 89.933594 68.054688 88.839844 68.984375 L 84.902344 72.210938 C 84.304688 72.644531 83.761719 72.984375 83.277344 73.234375 C 82.996094 73.390625 82.738281 73.515625 82.488281 73.609375 L 82.488281 73.773438 C 82.847656 73.75 83.226562 73.722656 83.632812 73.691406 C 83.976562 73.691406 84.363281 73.6875 84.777344 73.671875 C 85.195312 73.660156 85.613281 73.648438 86.027344 73.648438 L 95.507812 73.648438 L 95.507812 77.921875 L 77.277344 77.921875 L 77.277344 72.941406 L 85.964844 65.878906 C 87.550781 64.578125 88.683594 63.351562 89.382812 62.210938 C 90.074219 61.0625 90.425781 59.835938 90.425781 58.546875 C 90.425781 57.328125 90.054688 56.351562 89.320312 55.628906 C 88.597656 54.894531 87.601562 54.523438 86.339844 54.523438 C 84.976562 54.523438 83.894531 54.878906 83.089844 55.585938 C 82.285156 56.285156 81.882812 57.207031 81.882812 58.359375 L 77.089844 58.359375 C 77.117188 57.148438 77.351562 56.0625 77.800781 55.085938 C 78.257812 54.101562 78.886719 53.265625 79.695312 52.566406 C 80.496094 51.875 81.472656 51.332031 82.613281 50.941406 C 83.761719 50.554688 85.035156 50.359375 86.425781 50.359375 C 87.726562 50.359375 88.925781 50.554688 90.007812 50.941406 C 91.089844 51.316406 92.011719 51.859375 92.777344 52.566406 C 93.539062 53.265625 94.132812 54.097656 94.550781 55.066406 C 94.964844 56.039062 95.175781 57.128906 95.175781 58.335938 Z M 95.175781 58.335938 "/>
<path style=" stroke:none;fill-rule:nonzero;fill:rgb(0%,0%,0%);fill-opacity:1;" d="M 110.914062 50.734375 L 116.203125 50.734375 L 104.683594 66.984375 L 104.683594 68.398438 L 112.578125 68.398438 L 112.578125 62.441406 L 117.308594 62.441406 L 117.308594 77.921875 L 112.578125 77.921875 L 112.578125 72.523438 L 100.203125 72.523438 L 100.203125 65.878906 Z M 110.914062 50.734375 "/>
<path style=" stroke:none;fill-rule:nonzero;fill:rgb(0%,0%,0%);fill-opacity:1;" d="M 10.996094 75.015625 L 18.289062 75.015625 L 18.289062 55.953125 C 18.289062 55.746094 18.292969 55.511719 18.308594 55.246094 C 18.320312 54.984375 18.328125 54.742188 18.328125 54.515625 C 18.328125 54.296875 18.328125 54.101562 18.328125 53.933594 C 18.339844 53.765625 18.351562 53.683594 18.351562 53.683594 L 18.289062 53.683594 C 18.105469 53.839844 17.921875 53.976562 17.746094 54.101562 C 17.605469 54.226562 17.453125 54.351562 17.289062 54.476562 C 17.121094 54.601562 16.960938 54.71875 16.808594 54.828125 L 11.496094 58.453125 L 11.496094 55.015625 L 17.328125 50.851562 L 21.683594 50.851562 L 21.683594 75.015625 L 27.789062 75.015625 L 27.789062 78.039062 L 10.996094 78.039062 Z M 10.996094 75.015625 "/>
<g clip-path="url(#clip1)" clip-rule="nonzero">
<path style="fill:none;stroke-width:5;stroke-linecap:round;stroke-linejoin:miter;stroke:rgb(94.509804%,35.686275%,42.745098%);stroke-opacity:1;stroke-miterlimit:4;" d="M 1.501681 1.497346 L 43.493814 1.502028 " transform="matrix(0.834327,0.834327,-0.834327,0.834327,80.226852,44.923613)"/>
</g>
</g>
</svg>
