<?xml version="1.0" encoding="UTF-8"?>
<svg xmlns="http://www.w3.org/2000/svg" xmlns:xlink="http://www.w3.org/1999/xlink" width="32px" height="32px" viewBox="0 0 32 32" version="1.1">
<defs>
<clipPath id="clip1">
  <path d="M 15 10.320312 L 30.320312 10.320312 L 30.320312 22 L 15 22 Z M 15 10.320312 "/>
</clipPath>
</defs>
<g id="surface1">
<rect x="0" y="0" width="32" height="32" style="fill:rgb(100%,100%,100%);fill-opacity:1;stroke:none;"/>
<path style=" stroke:none;fill-rule:nonzero;fill:rgb(0%,0%,0%);fill-opacity:1;" d="M 15.386719 11.796875 L 16.609375 11.796875 L 13.320312 20.664062 L 12.085938 20.664062 Z M 15.386719 11.796875 "/>
<path style=" stroke:none;fill-rule:nonzero;fill:rgb(0%,0%,0%);fill-opacity:1;" d="M 23.792969 14.585938 C 23.792969 14.816406 23.765625 15.042969 23.703125 15.261719 C 23.644531 15.480469 23.550781 15.699219 23.417969 15.917969 C 23.289062 16.132812 23.125 16.351562 22.921875 16.570312 C 22.722656 16.789062 22.484375 17.015625 22.210938 17.246094 L 21.226562 18.054688 C 21.078125 18.160156 20.941406 18.246094 20.820312 18.308594 C 20.75 18.347656 20.683594 18.378906 20.621094 18.402344 L 20.621094 18.445312 C 20.710938 18.4375 20.804688 18.429688 20.90625 18.421875 C 20.992188 18.421875 21.089844 18.421875 21.195312 18.417969 C 21.296875 18.414062 21.402344 18.414062 21.507812 18.414062 L 23.875 18.414062 L 23.875 19.480469 L 19.320312 19.480469 L 19.320312 18.234375 L 21.492188 16.46875 C 21.886719 16.144531 22.171875 15.835938 22.34375 15.554688 C 22.519531 15.265625 22.605469 14.960938 22.605469 14.636719 C 22.605469 14.332031 22.515625 14.085938 22.328125 13.90625 C 22.148438 13.722656 21.898438 13.632812 21.585938 13.632812 C 21.242188 13.632812 20.972656 13.71875 20.773438 13.898438 C 20.570312 14.070312 20.46875 14.300781 20.46875 14.589844 L 19.273438 14.589844 C 19.28125 14.289062 19.335938 14.015625 19.449219 13.773438 C 19.5625 13.523438 19.722656 13.316406 19.921875 13.140625 C 20.125 12.96875 20.367188 12.832031 20.652344 12.734375 C 20.941406 12.640625 21.257812 12.589844 21.605469 12.589844 C 21.929688 12.589844 22.230469 12.640625 22.5 12.734375 C 22.773438 12.828125 23.003906 12.964844 23.195312 13.140625 C 23.382812 13.316406 23.53125 13.523438 23.636719 13.765625 C 23.742188 14.007812 23.792969 14.28125 23.792969 14.585938 Z M 23.792969 14.585938 "/>
<path style=" stroke:none;fill-rule:nonzero;fill:rgb(0%,0%,0%);fill-opacity:1;" d="M 27.726562 12.683594 L 29.050781 12.683594 L 26.171875 16.746094 L 26.171875 17.101562 L 28.144531 17.101562 L 28.144531 15.609375 L 29.328125 15.609375 L 29.328125 19.480469 L 28.144531 19.480469 L 28.144531 18.132812 L 25.050781 18.132812 L 25.050781 16.46875 Z M 27.726562 12.683594 "/>
<path style=" stroke:none;fill-rule:nonzero;fill:rgb(0%,0%,0%);fill-opacity:1;" d="M 2.75 18.753906 L 4.570312 18.753906 L 4.570312 13.988281 C 4.570312 13.9375 4.570312 13.878906 4.578125 13.8125 C 4.578125 13.746094 4.582031 13.6875 4.582031 13.628906 C 4.582031 13.574219 4.582031 13.523438 4.582031 13.484375 C 4.585938 13.441406 4.585938 13.421875 4.585938 13.421875 L 4.570312 13.421875 C 4.523438 13.460938 4.480469 13.492188 4.4375 13.523438 C 4.398438 13.554688 4.363281 13.585938 4.320312 13.617188 C 4.28125 13.648438 4.242188 13.679688 4.203125 13.707031 L 2.875 14.613281 L 2.875 13.753906 L 4.332031 12.710938 L 5.421875 12.710938 L 5.421875 18.753906 L 6.945312 18.753906 L 6.945312 19.507812 L 2.75 19.507812 Z M 2.75 18.753906 "/>
<g clip-path="url(#clip1)" clip-rule="nonzero">
<path style="fill:none;stroke-width:5;stroke-linecap:round;stroke-linejoin:miter;stroke:rgb(94.509804%,35.686275%,42.745098%);stroke-opacity:1;stroke-miterlimit:4;" d="M 1.501681 1.492665 L 43.4798 1.502028 " transform="matrix(0.208582,0.208582,-0.208582,0.208582,20.056713,11.230904)"/>
</g>
</g>
</svg>
